<?xml version="1.0" encoding="UTF-8" standalone="no"?>
<!DOCTYPE svg PUBLIC "-//W3C//DTD SVG 1.1//EN"
 "http://www.w3.org/Graphics/SVG/1.1/DTD/svg11.dtd">
<!-- Generated by graphviz version 2.40.1 (20161225.0304)
 -->
<!-- Title: G Pages: 1 -->
<svg width="377pt" height="1881pt"
 viewBox="0.00 0.00 377.00 1881.00" xmlns="http://www.w3.org/2000/svg" xmlns:xlink="http://www.w3.org/1999/xlink">
<g id="graph0" class="graph" transform="scale(1 1) rotate(0) translate(4 1877)">
<title>G</title>
<polygon fill="#ffffff" stroke="transparent" points="-4,4 -4,-1877 373,-1877 373,4 -4,4"/>
<!-- 139807964251360 -->
<g id="node1" class="node">
<title>139807964251360</title>
<polygon fill="none" stroke="#000000" points="32,-1826.5 32,-1872.5 337,-1872.5 337,-1826.5 32,-1826.5"/>
<text text-anchor="middle" x="94.5" y="-1845.8" font-family="Times,serif" font-size="14.00" fill="#000000">input_1: InputLayer</text>
<polyline fill="none" stroke="#000000" points="157,-1826.5 157,-1872.5 "/>
<text text-anchor="middle" x="184.5" y="-1857.3" font-family="Times,serif" font-size="14.00" fill="#000000">input:</text>
<polyline fill="none" stroke="#000000" points="157,-1849.5 212,-1849.5 "/>
<text text-anchor="middle" x="184.5" y="-1834.3" font-family="Times,serif" font-size="14.00" fill="#000000">output:</text>
<polyline fill="none" stroke="#000000" points="212,-1826.5 212,-1872.5 "/>
<text text-anchor="middle" x="274.5" y="-1857.3" font-family="Times,serif" font-size="14.00" fill="#000000">(None, 224, 224, 3)</text>
<polyline fill="none" stroke="#000000" points="212,-1849.5 337,-1849.5 "/>
<text text-anchor="middle" x="274.5" y="-1834.3" font-family="Times,serif" font-size="14.00" fill="#000000">(None, 224, 224, 3)</text>
</g>
<!-- 139807964114784 -->
<g id="node2" class="node">
<title>139807964114784</title>
<polygon fill="none" stroke="#000000" points="18.5,-1743.5 18.5,-1789.5 350.5,-1789.5 350.5,-1743.5 18.5,-1743.5"/>
<text text-anchor="middle" x="91.5" y="-1762.8" font-family="Times,serif" font-size="14.00" fill="#000000">block1_conv1: Conv2D</text>
<polyline fill="none" stroke="#000000" points="164.5,-1743.5 164.5,-1789.5 "/>
<text text-anchor="middle" x="192" y="-1774.3" font-family="Times,serif" font-size="14.00" fill="#000000">input:</text>
<polyline fill="none" stroke="#000000" points="164.5,-1766.5 219.5,-1766.5 "/>
<text text-anchor="middle" x="192" y="-1751.3" font-family="Times,serif" font-size="14.00" fill="#000000">output:</text>
<polyline fill="none" stroke="#000000" points="219.5,-1743.5 219.5,-1789.5 "/>
<text text-anchor="middle" x="285" y="-1774.3" font-family="Times,serif" font-size="14.00" fill="#000000">(None, 224, 224, 3)</text>
<polyline fill="none" stroke="#000000" points="219.5,-1766.5 350.5,-1766.5 "/>
<text text-anchor="middle" x="285" y="-1751.3" font-family="Times,serif" font-size="14.00" fill="#000000">(None, 224, 224, 64)</text>
</g>
<!-- 139807964251360&#45;&gt;139807964114784 -->
<g id="edge1" class="edge">
<title>139807964251360&#45;&gt;139807964114784</title>
<path fill="none" stroke="#000000" d="M184.5,-1826.3799C184.5,-1818.1745 184.5,-1808.7679 184.5,-1799.8786"/>
<polygon fill="#000000" stroke="#000000" points="188.0001,-1799.784 184.5,-1789.784 181.0001,-1799.784 188.0001,-1799.784"/>
</g>
<!-- 139807964111480 -->
<g id="node3" class="node">
<title>139807964111480</title>
<polygon fill="none" stroke="#000000" points="18.5,-1660.5 18.5,-1706.5 350.5,-1706.5 350.5,-1660.5 18.5,-1660.5"/>
<text text-anchor="middle" x="91.5" y="-1679.8" font-family="Times,serif" font-size="14.00" fill="#000000">block1_conv2: Conv2D</text>
<polyline fill="none" stroke="#000000" points="164.5,-1660.5 164.5,-1706.5 "/>
<text text-anchor="middle" x="192" y="-1691.3" font-family="Times,serif" font-size="14.00" fill="#000000">input:</text>
<polyline fill="none" stroke="#000000" points="164.5,-1683.5 219.5,-1683.5 "/>
<text text-anchor="middle" x="192" y="-1668.3" font-family="Times,serif" font-size="14.00" fill="#000000">output:</text>
<polyline fill="none" stroke="#000000" points="219.5,-1660.5 219.5,-1706.5 "/>
<text text-anchor="middle" x="285" y="-1691.3" font-family="Times,serif" font-size="14.00" fill="#000000">(None, 224, 224, 64)</text>
<polyline fill="none" stroke="#000000" points="219.5,-1683.5 350.5,-1683.5 "/>
<text text-anchor="middle" x="285" y="-1668.3" font-family="Times,serif" font-size="14.00" fill="#000000">(None, 224, 224, 64)</text>
</g>
<!-- 139807964114784&#45;&gt;139807964111480 -->
<g id="edge2" class="edge">
<title>139807964114784&#45;&gt;139807964111480</title>
<path fill="none" stroke="#000000" d="M184.5,-1743.3799C184.5,-1735.1745 184.5,-1725.7679 184.5,-1716.8786"/>
<polygon fill="#000000" stroke="#000000" points="188.0001,-1716.784 184.5,-1706.784 181.0001,-1716.784 188.0001,-1716.784"/>
</g>
<!-- 139807093722136 -->
<g id="node4" class="node">
<title>139807093722136</title>
<polygon fill="none" stroke="#000000" points="3.5,-1577.5 3.5,-1623.5 365.5,-1623.5 365.5,-1577.5 3.5,-1577.5"/>
<text text-anchor="middle" x="91.5" y="-1596.8" font-family="Times,serif" font-size="14.00" fill="#000000">block1_pool: MaxPooling2D</text>
<polyline fill="none" stroke="#000000" points="179.5,-1577.5 179.5,-1623.5 "/>
<text text-anchor="middle" x="207" y="-1608.3" font-family="Times,serif" font-size="14.00" fill="#000000">input:</text>
<polyline fill="none" stroke="#000000" points="179.5,-1600.5 234.5,-1600.5 "/>
<text text-anchor="middle" x="207" y="-1585.3" font-family="Times,serif" font-size="14.00" fill="#000000">output:</text>
<polyline fill="none" stroke="#000000" points="234.5,-1577.5 234.5,-1623.5 "/>
<text text-anchor="middle" x="300" y="-1608.3" font-family="Times,serif" font-size="14.00" fill="#000000">(None, 224, 224, 64)</text>
<polyline fill="none" stroke="#000000" points="234.5,-1600.5 365.5,-1600.5 "/>
<text text-anchor="middle" x="300" y="-1585.3" font-family="Times,serif" font-size="14.00" fill="#000000">(None, 112, 112, 64)</text>
</g>
<!-- 139807964111480&#45;&gt;139807093722136 -->
<g id="edge3" class="edge">
<title>139807964111480&#45;&gt;139807093722136</title>
<path fill="none" stroke="#000000" d="M184.5,-1660.3799C184.5,-1652.1745 184.5,-1642.7679 184.5,-1633.8786"/>
<polygon fill="#000000" stroke="#000000" points="188.0001,-1633.784 184.5,-1623.784 181.0001,-1633.784 188.0001,-1633.784"/>
</g>
<!-- 139807093721856 -->
<g id="node5" class="node">
<title>139807093721856</title>
<polygon fill="none" stroke="#000000" points="15,-1494.5 15,-1540.5 354,-1540.5 354,-1494.5 15,-1494.5"/>
<text text-anchor="middle" x="88" y="-1513.8" font-family="Times,serif" font-size="14.00" fill="#000000">block2_conv1: Conv2D</text>
<polyline fill="none" stroke="#000000" points="161,-1494.5 161,-1540.5 "/>
<text text-anchor="middle" x="188.5" y="-1525.3" font-family="Times,serif" font-size="14.00" fill="#000000">input:</text>
<polyline fill="none" stroke="#000000" points="161,-1517.5 216,-1517.5 "/>
<text text-anchor="middle" x="188.5" y="-1502.3" font-family="Times,serif" font-size="14.00" fill="#000000">output:</text>
<polyline fill="none" stroke="#000000" points="216,-1494.5 216,-1540.5 "/>
<text text-anchor="middle" x="285" y="-1525.3" font-family="Times,serif" font-size="14.00" fill="#000000">(None, 112, 112, 64)</text>
<polyline fill="none" stroke="#000000" points="216,-1517.5 354,-1517.5 "/>
<text text-anchor="middle" x="285" y="-1502.3" font-family="Times,serif" font-size="14.00" fill="#000000">(None, 112, 112, 128)</text>
</g>
<!-- 139807093722136&#45;&gt;139807093721856 -->
<g id="edge4" class="edge">
<title>139807093722136&#45;&gt;139807093721856</title>
<path fill="none" stroke="#000000" d="M184.5,-1577.3799C184.5,-1569.1745 184.5,-1559.7679 184.5,-1550.8786"/>
<polygon fill="#000000" stroke="#000000" points="188.0001,-1550.784 184.5,-1540.784 181.0001,-1550.784 188.0001,-1550.784"/>
</g>
<!-- 139807964160520 -->
<g id="node6" class="node">
<title>139807964160520</title>
<polygon fill="none" stroke="#000000" points="15,-1411.5 15,-1457.5 354,-1457.5 354,-1411.5 15,-1411.5"/>
<text text-anchor="middle" x="88" y="-1430.8" font-family="Times,serif" font-size="14.00" fill="#000000">block2_conv2: Conv2D</text>
<polyline fill="none" stroke="#000000" points="161,-1411.5 161,-1457.5 "/>
<text text-anchor="middle" x="188.5" y="-1442.3" font-family="Times,serif" font-size="14.00" fill="#000000">input:</text>
<polyline fill="none" stroke="#000000" points="161,-1434.5 216,-1434.5 "/>
<text text-anchor="middle" x="188.5" y="-1419.3" font-family="Times,serif" font-size="14.00" fill="#000000">output:</text>
<polyline fill="none" stroke="#000000" points="216,-1411.5 216,-1457.5 "/>
<text text-anchor="middle" x="285" y="-1442.3" font-family="Times,serif" font-size="14.00" fill="#000000">(None, 112, 112, 128)</text>
<polyline fill="none" stroke="#000000" points="216,-1434.5 354,-1434.5 "/>
<text text-anchor="middle" x="285" y="-1419.3" font-family="Times,serif" font-size="14.00" fill="#000000">(None, 112, 112, 128)</text>
</g>
<!-- 139807093721856&#45;&gt;139807964160520 -->
<g id="edge5" class="edge">
<title>139807093721856&#45;&gt;139807964160520</title>
<path fill="none" stroke="#000000" d="M184.5,-1494.3799C184.5,-1486.1745 184.5,-1476.7679 184.5,-1467.8786"/>
<polygon fill="#000000" stroke="#000000" points="188.0001,-1467.784 184.5,-1457.784 181.0001,-1467.784 188.0001,-1467.784"/>
</g>
<!-- 139807964479896 -->
<g id="node7" class="node">
<title>139807964479896</title>
<polygon fill="none" stroke="#000000" points="0,-1328.5 0,-1374.5 369,-1374.5 369,-1328.5 0,-1328.5"/>
<text text-anchor="middle" x="88" y="-1347.8" font-family="Times,serif" font-size="14.00" fill="#000000">block2_pool: MaxPooling2D</text>
<polyline fill="none" stroke="#000000" points="176,-1328.5 176,-1374.5 "/>
<text text-anchor="middle" x="203.5" y="-1359.3" font-family="Times,serif" font-size="14.00" fill="#000000">input:</text>
<polyline fill="none" stroke="#000000" points="176,-1351.5 231,-1351.5 "/>
<text text-anchor="middle" x="203.5" y="-1336.3" font-family="Times,serif" font-size="14.00" fill="#000000">output:</text>
<polyline fill="none" stroke="#000000" points="231,-1328.5 231,-1374.5 "/>
<text text-anchor="middle" x="300" y="-1359.3" font-family="Times,serif" font-size="14.00" fill="#000000">(None, 112, 112, 128)</text>
<polyline fill="none" stroke="#000000" points="231,-1351.5 369,-1351.5 "/>
<text text-anchor="middle" x="300" y="-1336.3" font-family="Times,serif" font-size="14.00" fill="#000000">(None, 56, 56, 128)</text>
</g>
<!-- 139807964160520&#45;&gt;139807964479896 -->
<g id="edge6" class="edge">
<title>139807964160520&#45;&gt;139807964479896</title>
<path fill="none" stroke="#000000" d="M184.5,-1411.3799C184.5,-1403.1745 184.5,-1393.7679 184.5,-1384.8786"/>
<polygon fill="#000000" stroke="#000000" points="188.0001,-1384.784 184.5,-1374.784 181.0001,-1384.784 188.0001,-1384.784"/>
</g>
<!-- 139807964481912 -->
<g id="node8" class="node">
<title>139807964481912</title>
<polygon fill="none" stroke="#000000" points="21.5,-1245.5 21.5,-1291.5 347.5,-1291.5 347.5,-1245.5 21.5,-1245.5"/>
<text text-anchor="middle" x="94.5" y="-1264.8" font-family="Times,serif" font-size="14.00" fill="#000000">block3_conv1: Conv2D</text>
<polyline fill="none" stroke="#000000" points="167.5,-1245.5 167.5,-1291.5 "/>
<text text-anchor="middle" x="195" y="-1276.3" font-family="Times,serif" font-size="14.00" fill="#000000">input:</text>
<polyline fill="none" stroke="#000000" points="167.5,-1268.5 222.5,-1268.5 "/>
<text text-anchor="middle" x="195" y="-1253.3" font-family="Times,serif" font-size="14.00" fill="#000000">output:</text>
<polyline fill="none" stroke="#000000" points="222.5,-1245.5 222.5,-1291.5 "/>
<text text-anchor="middle" x="285" y="-1276.3" font-family="Times,serif" font-size="14.00" fill="#000000">(None, 56, 56, 128)</text>
<polyline fill="none" stroke="#000000" points="222.5,-1268.5 347.5,-1268.5 "/>
<text text-anchor="middle" x="285" y="-1253.3" font-family="Times,serif" font-size="14.00" fill="#000000">(None, 56, 56, 256)</text>
</g>
<!-- 139807964479896&#45;&gt;139807964481912 -->
<g id="edge7" class="edge">
<title>139807964479896&#45;&gt;139807964481912</title>
<path fill="none" stroke="#000000" d="M184.5,-1328.3799C184.5,-1320.1745 184.5,-1310.7679 184.5,-1301.8786"/>
<polygon fill="#000000" stroke="#000000" points="188.0001,-1301.784 184.5,-1291.784 181.0001,-1301.784 188.0001,-1301.784"/>
</g>
<!-- 139807094403536 -->
<g id="node9" class="node">
<title>139807094403536</title>
<polygon fill="none" stroke="#000000" points="21.5,-1162.5 21.5,-1208.5 347.5,-1208.5 347.5,-1162.5 21.5,-1162.5"/>
<text text-anchor="middle" x="94.5" y="-1181.8" font-family="Times,serif" font-size="14.00" fill="#000000">block3_conv2: Conv2D</text>
<polyline fill="none" stroke="#000000" points="167.5,-1162.5 167.5,-1208.5 "/>
<text text-anchor="middle" x="195" y="-1193.3" font-family="Times,serif" font-size="14.00" fill="#000000">input:</text>
<polyline fill="none" stroke="#000000" points="167.5,-1185.5 222.5,-1185.5 "/>
<text text-anchor="middle" x="195" y="-1170.3" font-family="Times,serif" font-size="14.00" fill="#000000">output:</text>
<polyline fill="none" stroke="#000000" points="222.5,-1162.5 222.5,-1208.5 "/>
<text text-anchor="middle" x="285" y="-1193.3" font-family="Times,serif" font-size="14.00" fill="#000000">(None, 56, 56, 256)</text>
<polyline fill="none" stroke="#000000" points="222.5,-1185.5 347.5,-1185.5 "/>
<text text-anchor="middle" x="285" y="-1170.3" font-family="Times,serif" font-size="14.00" fill="#000000">(None, 56, 56, 256)</text>
</g>
<!-- 139807964481912&#45;&gt;139807094403536 -->
<g id="edge8" class="edge">
<title>139807964481912&#45;&gt;139807094403536</title>
<path fill="none" stroke="#000000" d="M184.5,-1245.3799C184.5,-1237.1745 184.5,-1227.7679 184.5,-1218.8786"/>
<polygon fill="#000000" stroke="#000000" points="188.0001,-1218.784 184.5,-1208.784 181.0001,-1218.784 188.0001,-1218.784"/>
</g>
<!-- 139807092933800 -->
<g id="node10" class="node">
<title>139807092933800</title>
<polygon fill="none" stroke="#000000" points="21.5,-1079.5 21.5,-1125.5 347.5,-1125.5 347.5,-1079.5 21.5,-1079.5"/>
<text text-anchor="middle" x="94.5" y="-1098.8" font-family="Times,serif" font-size="14.00" fill="#000000">block3_conv3: Conv2D</text>
<polyline fill="none" stroke="#000000" points="167.5,-1079.5 167.5,-1125.5 "/>
<text text-anchor="middle" x="195" y="-1110.3" font-family="Times,serif" font-size="14.00" fill="#000000">input:</text>
<polyline fill="none" stroke="#000000" points="167.5,-1102.5 222.5,-1102.5 "/>
<text text-anchor="middle" x="195" y="-1087.3" font-family="Times,serif" font-size="14.00" fill="#000000">output:</text>
<polyline fill="none" stroke="#000000" points="222.5,-1079.5 222.5,-1125.5 "/>
<text text-anchor="middle" x="285" y="-1110.3" font-family="Times,serif" font-size="14.00" fill="#000000">(None, 56, 56, 256)</text>
<polyline fill="none" stroke="#000000" points="222.5,-1102.5 347.5,-1102.5 "/>
<text text-anchor="middle" x="285" y="-1087.3" font-family="Times,serif" font-size="14.00" fill="#000000">(None, 56, 56, 256)</text>
</g>
<!-- 139807094403536&#45;&gt;139807092933800 -->
<g id="edge9" class="edge">
<title>139807094403536&#45;&gt;139807092933800</title>
<path fill="none" stroke="#000000" d="M184.5,-1162.3799C184.5,-1154.1745 184.5,-1144.7679 184.5,-1135.8786"/>
<polygon fill="#000000" stroke="#000000" points="188.0001,-1135.784 184.5,-1125.784 181.0001,-1135.784 188.0001,-1135.784"/>
</g>
<!-- 139807093064760 -->
<g id="node11" class="node">
<title>139807093064760</title>
<polygon fill="none" stroke="#000000" points="6.5,-996.5 6.5,-1042.5 362.5,-1042.5 362.5,-996.5 6.5,-996.5"/>
<text text-anchor="middle" x="94.5" y="-1015.8" font-family="Times,serif" font-size="14.00" fill="#000000">block3_pool: MaxPooling2D</text>
<polyline fill="none" stroke="#000000" points="182.5,-996.5 182.5,-1042.5 "/>
<text text-anchor="middle" x="210" y="-1027.3" font-family="Times,serif" font-size="14.00" fill="#000000">input:</text>
<polyline fill="none" stroke="#000000" points="182.5,-1019.5 237.5,-1019.5 "/>
<text text-anchor="middle" x="210" y="-1004.3" font-family="Times,serif" font-size="14.00" fill="#000000">output:</text>
<polyline fill="none" stroke="#000000" points="237.5,-996.5 237.5,-1042.5 "/>
<text text-anchor="middle" x="300" y="-1027.3" font-family="Times,serif" font-size="14.00" fill="#000000">(None, 56, 56, 256)</text>
<polyline fill="none" stroke="#000000" points="237.5,-1019.5 362.5,-1019.5 "/>
<text text-anchor="middle" x="300" y="-1004.3" font-family="Times,serif" font-size="14.00" fill="#000000">(None, 28, 28, 256)</text>
</g>
<!-- 139807092933800&#45;&gt;139807093064760 -->
<g id="edge10" class="edge">
<title>139807092933800&#45;&gt;139807093064760</title>
<path fill="none" stroke="#000000" d="M184.5,-1079.3799C184.5,-1071.1745 184.5,-1061.7679 184.5,-1052.8786"/>
<polygon fill="#000000" stroke="#000000" points="188.0001,-1052.784 184.5,-1042.784 181.0001,-1052.784 188.0001,-1052.784"/>
</g>
<!-- 139807093067504 -->
<g id="node12" class="node">
<title>139807093067504</title>
<polygon fill="none" stroke="#000000" points="21.5,-913.5 21.5,-959.5 347.5,-959.5 347.5,-913.5 21.5,-913.5"/>
<text text-anchor="middle" x="94.5" y="-932.8" font-family="Times,serif" font-size="14.00" fill="#000000">block4_conv1: Conv2D</text>
<polyline fill="none" stroke="#000000" points="167.5,-913.5 167.5,-959.5 "/>
<text text-anchor="middle" x="195" y="-944.3" font-family="Times,serif" font-size="14.00" fill="#000000">input:</text>
<polyline fill="none" stroke="#000000" points="167.5,-936.5 222.5,-936.5 "/>
<text text-anchor="middle" x="195" y="-921.3" font-family="Times,serif" font-size="14.00" fill="#000000">output:</text>
<polyline fill="none" stroke="#000000" points="222.5,-913.5 222.5,-959.5 "/>
<text text-anchor="middle" x="285" y="-944.3" font-family="Times,serif" font-size="14.00" fill="#000000">(None, 28, 28, 256)</text>
<polyline fill="none" stroke="#000000" points="222.5,-936.5 347.5,-936.5 "/>
<text text-anchor="middle" x="285" y="-921.3" font-family="Times,serif" font-size="14.00" fill="#000000">(None, 28, 28, 512)</text>
</g>
<!-- 139807093064760&#45;&gt;139807093067504 -->
<g id="edge11" class="edge">
<title>139807093064760&#45;&gt;139807093067504</title>
<path fill="none" stroke="#000000" d="M184.5,-996.3799C184.5,-988.1745 184.5,-978.7679 184.5,-969.8786"/>
<polygon fill="#000000" stroke="#000000" points="188.0001,-969.784 184.5,-959.784 181.0001,-969.784 188.0001,-969.784"/>
</g>
<!-- 139807095677560 -->
<g id="node13" class="node">
<title>139807095677560</title>
<polygon fill="none" stroke="#000000" points="21.5,-830.5 21.5,-876.5 347.5,-876.5 347.5,-830.5 21.5,-830.5"/>
<text text-anchor="middle" x="94.5" y="-849.8" font-family="Times,serif" font-size="14.00" fill="#000000">block4_conv2: Conv2D</text>
<polyline fill="none" stroke="#000000" points="167.5,-830.5 167.5,-876.5 "/>
<text text-anchor="middle" x="195" y="-861.3" font-family="Times,serif" font-size="14.00" fill="#000000">input:</text>
<polyline fill="none" stroke="#000000" points="167.5,-853.5 222.5,-853.5 "/>
<text text-anchor="middle" x="195" y="-838.3" font-family="Times,serif" font-size="14.00" fill="#000000">output:</text>
<polyline fill="none" stroke="#000000" points="222.5,-830.5 222.5,-876.5 "/>
<text text-anchor="middle" x="285" y="-861.3" font-family="Times,serif" font-size="14.00" fill="#000000">(None, 28, 28, 512)</text>
<polyline fill="none" stroke="#000000" points="222.5,-853.5 347.5,-853.5 "/>
<text text-anchor="middle" x="285" y="-838.3" font-family="Times,serif" font-size="14.00" fill="#000000">(None, 28, 28, 512)</text>
</g>
<!-- 139807093067504&#45;&gt;139807095677560 -->
<g id="edge12" class="edge">
<title>139807093067504&#45;&gt;139807095677560</title>
<path fill="none" stroke="#000000" d="M184.5,-913.3799C184.5,-905.1745 184.5,-895.7679 184.5,-886.8786"/>
<polygon fill="#000000" stroke="#000000" points="188.0001,-886.784 184.5,-876.784 181.0001,-886.784 188.0001,-886.784"/>
</g>
<!-- 139807091885168 -->
<g id="node14" class="node">
<title>139807091885168</title>
<polygon fill="none" stroke="#000000" points="21.5,-747.5 21.5,-793.5 347.5,-793.5 347.5,-747.5 21.5,-747.5"/>
<text text-anchor="middle" x="94.5" y="-766.8" font-family="Times,serif" font-size="14.00" fill="#000000">block4_conv3: Conv2D</text>
<polyline fill="none" stroke="#000000" points="167.5,-747.5 167.5,-793.5 "/>
<text text-anchor="middle" x="195" y="-778.3" font-family="Times,serif" font-size="14.00" fill="#000000">input:</text>
<polyline fill="none" stroke="#000000" points="167.5,-770.5 222.5,-770.5 "/>
<text text-anchor="middle" x="195" y="-755.3" font-family="Times,serif" font-size="14.00" fill="#000000">output:</text>
<polyline fill="none" stroke="#000000" points="222.5,-747.5 222.5,-793.5 "/>
<text text-anchor="middle" x="285" y="-778.3" font-family="Times,serif" font-size="14.00" fill="#000000">(None, 28, 28, 512)</text>
<polyline fill="none" stroke="#000000" points="222.5,-770.5 347.5,-770.5 "/>
<text text-anchor="middle" x="285" y="-755.3" font-family="Times,serif" font-size="14.00" fill="#000000">(None, 28, 28, 512)</text>
</g>
<!-- 139807095677560&#45;&gt;139807091885168 -->
<g id="edge13" class="edge">
<title>139807095677560&#45;&gt;139807091885168</title>
<path fill="none" stroke="#000000" d="M184.5,-830.3799C184.5,-822.1745 184.5,-812.7679 184.5,-803.8786"/>
<polygon fill="#000000" stroke="#000000" points="188.0001,-803.784 184.5,-793.784 181.0001,-803.784 188.0001,-803.784"/>
</g>
<!-- 139807092004064 -->
<g id="node15" class="node">
<title>139807092004064</title>
<polygon fill="none" stroke="#000000" points="6.5,-664.5 6.5,-710.5 362.5,-710.5 362.5,-664.5 6.5,-664.5"/>
<text text-anchor="middle" x="94.5" y="-683.8" font-family="Times,serif" font-size="14.00" fill="#000000">block4_pool: MaxPooling2D</text>
<polyline fill="none" stroke="#000000" points="182.5,-664.5 182.5,-710.5 "/>
<text text-anchor="middle" x="210" y="-695.3" font-family="Times,serif" font-size="14.00" fill="#000000">input:</text>
<polyline fill="none" stroke="#000000" points="182.5,-687.5 237.5,-687.5 "/>
<text text-anchor="middle" x="210" y="-672.3" font-family="Times,serif" font-size="14.00" fill="#000000">output:</text>
<polyline fill="none" stroke="#000000" points="237.5,-664.5 237.5,-710.5 "/>
<text text-anchor="middle" x="300" y="-695.3" font-family="Times,serif" font-size="14.00" fill="#000000">(None, 28, 28, 512)</text>
<polyline fill="none" stroke="#000000" points="237.5,-687.5 362.5,-687.5 "/>
<text text-anchor="middle" x="300" y="-672.3" font-family="Times,serif" font-size="14.00" fill="#000000">(None, 14, 14, 512)</text>
</g>
<!-- 139807091885168&#45;&gt;139807092004064 -->
<g id="edge14" class="edge">
<title>139807091885168&#45;&gt;139807092004064</title>
<path fill="none" stroke="#000000" d="M184.5,-747.3799C184.5,-739.1745 184.5,-729.7679 184.5,-720.8786"/>
<polygon fill="#000000" stroke="#000000" points="188.0001,-720.784 184.5,-710.784 181.0001,-720.784 188.0001,-720.784"/>
</g>
<!-- 139807092006528 -->
<g id="node16" class="node">
<title>139807092006528</title>
<polygon fill="none" stroke="#000000" points="21.5,-581.5 21.5,-627.5 347.5,-627.5 347.5,-581.5 21.5,-581.5"/>
<text text-anchor="middle" x="94.5" y="-600.8" font-family="Times,serif" font-size="14.00" fill="#000000">block5_conv1: Conv2D</text>
<polyline fill="none" stroke="#000000" points="167.5,-581.5 167.5,-627.5 "/>
<text text-anchor="middle" x="195" y="-612.3" font-family="Times,serif" font-size="14.00" fill="#000000">input:</text>
<polyline fill="none" stroke="#000000" points="167.5,-604.5 222.5,-604.5 "/>
<text text-anchor="middle" x="195" y="-589.3" font-family="Times,serif" font-size="14.00" fill="#000000">output:</text>
<polyline fill="none" stroke="#000000" points="222.5,-581.5 222.5,-627.5 "/>
<text text-anchor="middle" x="285" y="-612.3" font-family="Times,serif" font-size="14.00" fill="#000000">(None, 14, 14, 512)</text>
<polyline fill="none" stroke="#000000" points="222.5,-604.5 347.5,-604.5 "/>
<text text-anchor="middle" x="285" y="-589.3" font-family="Times,serif" font-size="14.00" fill="#000000">(None, 14, 14, 512)</text>
</g>
<!-- 139807092004064&#45;&gt;139807092006528 -->
<g id="edge15" class="edge">
<title>139807092004064&#45;&gt;139807092006528</title>
<path fill="none" stroke="#000000" d="M184.5,-664.3799C184.5,-656.1745 184.5,-646.7679 184.5,-637.8786"/>
<polygon fill="#000000" stroke="#000000" points="188.0001,-637.784 184.5,-627.784 181.0001,-637.784 188.0001,-637.784"/>
</g>
<!-- 139807092499232 -->
<g id="node17" class="node">
<title>139807092499232</title>
<polygon fill="none" stroke="#000000" points="21.5,-498.5 21.5,-544.5 347.5,-544.5 347.5,-498.5 21.5,-498.5"/>
<text text-anchor="middle" x="94.5" y="-517.8" font-family="Times,serif" font-size="14.00" fill="#000000">block5_conv2: Conv2D</text>
<polyline fill="none" stroke="#000000" points="167.5,-498.5 167.5,-544.5 "/>
<text text-anchor="middle" x="195" y="-529.3" font-family="Times,serif" font-size="14.00" fill="#000000">input:</text>
<polyline fill="none" stroke="#000000" points="167.5,-521.5 222.5,-521.5 "/>
<text text-anchor="middle" x="195" y="-506.3" font-family="Times,serif" font-size="14.00" fill="#000000">output:</text>
<polyline fill="none" stroke="#000000" points="222.5,-498.5 222.5,-544.5 "/>
<text text-anchor="middle" x="285" y="-529.3" font-family="Times,serif" font-size="14.00" fill="#000000">(None, 14, 14, 512)</text>
<polyline fill="none" stroke="#000000" points="222.5,-521.5 347.5,-521.5 "/>
<text text-anchor="middle" x="285" y="-506.3" font-family="Times,serif" font-size="14.00" fill="#000000">(None, 14, 14, 512)</text>
</g>
<!-- 139807092006528&#45;&gt;139807092499232 -->
<g id="edge16" class="edge">
<title>139807092006528&#45;&gt;139807092499232</title>
<path fill="none" stroke="#000000" d="M184.5,-581.3799C184.5,-573.1745 184.5,-563.7679 184.5,-554.8786"/>
<polygon fill="#000000" stroke="#000000" points="188.0001,-554.784 184.5,-544.784 181.0001,-554.784 188.0001,-554.784"/>
</g>
<!-- 139807093199088 -->
<g id="node18" class="node">
<title>139807093199088</title>
<polygon fill="none" stroke="#000000" points="21.5,-415.5 21.5,-461.5 347.5,-461.5 347.5,-415.5 21.5,-415.5"/>
<text text-anchor="middle" x="94.5" y="-434.8" font-family="Times,serif" font-size="14.00" fill="#000000">block5_conv3: Conv2D</text>
<polyline fill="none" stroke="#000000" points="167.5,-415.5 167.5,-461.5 "/>
<text text-anchor="middle" x="195" y="-446.3" font-family="Times,serif" font-size="14.00" fill="#000000">input:</text>
<polyline fill="none" stroke="#000000" points="167.5,-438.5 222.5,-438.5 "/>
<text text-anchor="middle" x="195" y="-423.3" font-family="Times,serif" font-size="14.00" fill="#000000">output:</text>
<polyline fill="none" stroke="#000000" points="222.5,-415.5 222.5,-461.5 "/>
<text text-anchor="middle" x="285" y="-446.3" font-family="Times,serif" font-size="14.00" fill="#000000">(None, 14, 14, 512)</text>
<polyline fill="none" stroke="#000000" points="222.5,-438.5 347.5,-438.5 "/>
<text text-anchor="middle" x="285" y="-423.3" font-family="Times,serif" font-size="14.00" fill="#000000">(None, 14, 14, 512)</text>
</g>
<!-- 139807092499232&#45;&gt;139807093199088 -->
<g id="edge17" class="edge">
<title>139807092499232&#45;&gt;139807093199088</title>
<path fill="none" stroke="#000000" d="M184.5,-498.3799C184.5,-490.1745 184.5,-480.7679 184.5,-471.8786"/>
<polygon fill="#000000" stroke="#000000" points="188.0001,-471.784 184.5,-461.784 181.0001,-471.784 188.0001,-471.784"/>
</g>
<!-- 139807093257608 -->
<g id="node19" class="node">
<title>139807093257608</title>
<polygon fill="none" stroke="#000000" points="6.5,-332.5 6.5,-378.5 362.5,-378.5 362.5,-332.5 6.5,-332.5"/>
<text text-anchor="middle" x="94.5" y="-351.8" font-family="Times,serif" font-size="14.00" fill="#000000">block5_pool: MaxPooling2D</text>
<polyline fill="none" stroke="#000000" points="182.5,-332.5 182.5,-378.5 "/>
<text text-anchor="middle" x="210" y="-363.3" font-family="Times,serif" font-size="14.00" fill="#000000">input:</text>
<polyline fill="none" stroke="#000000" points="182.5,-355.5 237.5,-355.5 "/>
<text text-anchor="middle" x="210" y="-340.3" font-family="Times,serif" font-size="14.00" fill="#000000">output:</text>
<polyline fill="none" stroke="#000000" points="237.5,-332.5 237.5,-378.5 "/>
<text text-anchor="middle" x="300" y="-363.3" font-family="Times,serif" font-size="14.00" fill="#000000">(None, 14, 14, 512)</text>
<polyline fill="none" stroke="#000000" points="237.5,-355.5 362.5,-355.5 "/>
<text text-anchor="middle" x="300" y="-340.3" font-family="Times,serif" font-size="14.00" fill="#000000">(None, 7, 7, 512)</text>
</g>
<!-- 139807093199088&#45;&gt;139807093257608 -->
<g id="edge18" class="edge">
<title>139807093199088&#45;&gt;139807093257608</title>
<path fill="none" stroke="#000000" d="M184.5,-415.3799C184.5,-407.1745 184.5,-397.7679 184.5,-388.8786"/>
<polygon fill="#000000" stroke="#000000" points="188.0001,-388.784 184.5,-378.784 181.0001,-388.784 188.0001,-388.784"/>
</g>
<!-- 139807093387728 -->
<g id="node20" class="node">
<title>139807093387728</title>
<polygon fill="none" stroke="#000000" points="53.5,-249.5 53.5,-295.5 315.5,-295.5 315.5,-249.5 53.5,-249.5"/>
<text text-anchor="middle" x="101.5" y="-268.8" font-family="Times,serif" font-size="14.00" fill="#000000">flatten: Flatten</text>
<polyline fill="none" stroke="#000000" points="149.5,-249.5 149.5,-295.5 "/>
<text text-anchor="middle" x="177" y="-280.3" font-family="Times,serif" font-size="14.00" fill="#000000">input:</text>
<polyline fill="none" stroke="#000000" points="149.5,-272.5 204.5,-272.5 "/>
<text text-anchor="middle" x="177" y="-257.3" font-family="Times,serif" font-size="14.00" fill="#000000">output:</text>
<polyline fill="none" stroke="#000000" points="204.5,-249.5 204.5,-295.5 "/>
<text text-anchor="middle" x="260" y="-280.3" font-family="Times,serif" font-size="14.00" fill="#000000">(None, 7, 7, 512)</text>
<polyline fill="none" stroke="#000000" points="204.5,-272.5 315.5,-272.5 "/>
<text text-anchor="middle" x="260" y="-257.3" font-family="Times,serif" font-size="14.00" fill="#000000">(None, 25088)</text>
</g>
<!-- 139807093257608&#45;&gt;139807093387728 -->
<g id="edge19" class="edge">
<title>139807093257608&#45;&gt;139807093387728</title>
<path fill="none" stroke="#000000" d="M184.5,-332.3799C184.5,-324.1745 184.5,-314.7679 184.5,-305.8786"/>
<polygon fill="#000000" stroke="#000000" points="188.0001,-305.784 184.5,-295.784 181.0001,-305.784 188.0001,-305.784"/>
</g>
<!-- 139807093390752 -->
<g id="node21" class="node">
<title>139807093390752</title>
<polygon fill="none" stroke="#000000" points="71.5,-166.5 71.5,-212.5 297.5,-212.5 297.5,-166.5 71.5,-166.5"/>
<text text-anchor="middle" x="109" y="-185.8" font-family="Times,serif" font-size="14.00" fill="#000000">fc1: Dense</text>
<polyline fill="none" stroke="#000000" points="146.5,-166.5 146.5,-212.5 "/>
<text text-anchor="middle" x="174" y="-197.3" font-family="Times,serif" font-size="14.00" fill="#000000">input:</text>
<polyline fill="none" stroke="#000000" points="146.5,-189.5 201.5,-189.5 "/>
<text text-anchor="middle" x="174" y="-174.3" font-family="Times,serif" font-size="14.00" fill="#000000">output:</text>
<polyline fill="none" stroke="#000000" points="201.5,-166.5 201.5,-212.5 "/>
<text text-anchor="middle" x="249.5" y="-197.3" font-family="Times,serif" font-size="14.00" fill="#000000">(None, 25088)</text>
<polyline fill="none" stroke="#000000" points="201.5,-189.5 297.5,-189.5 "/>
<text text-anchor="middle" x="249.5" y="-174.3" font-family="Times,serif" font-size="14.00" fill="#000000">(None, 4096)</text>
</g>
<!-- 139807093387728&#45;&gt;139807093390752 -->
<g id="edge20" class="edge">
<title>139807093387728&#45;&gt;139807093390752</title>
<path fill="none" stroke="#000000" d="M184.5,-249.3799C184.5,-241.1745 184.5,-231.7679 184.5,-222.8786"/>
<polygon fill="#000000" stroke="#000000" points="188.0001,-222.784 184.5,-212.784 181.0001,-222.784 188.0001,-222.784"/>
</g>
<!-- 139807092332584 -->
<g id="node22" class="node">
<title>139807092332584</title>
<polygon fill="none" stroke="#000000" points="75,-83.5 75,-129.5 294,-129.5 294,-83.5 75,-83.5"/>
<text text-anchor="middle" x="112.5" y="-102.8" font-family="Times,serif" font-size="14.00" fill="#000000">fc2: Dense</text>
<polyline fill="none" stroke="#000000" points="150,-83.5 150,-129.5 "/>
<text text-anchor="middle" x="177.5" y="-114.3" font-family="Times,serif" font-size="14.00" fill="#000000">input:</text>
<polyline fill="none" stroke="#000000" points="150,-106.5 205,-106.5 "/>
<text text-anchor="middle" x="177.5" y="-91.3" font-family="Times,serif" font-size="14.00" fill="#000000">output:</text>
<polyline fill="none" stroke="#000000" points="205,-83.5 205,-129.5 "/>
<text text-anchor="middle" x="249.5" y="-114.3" font-family="Times,serif" font-size="14.00" fill="#000000">(None, 4096)</text>
<polyline fill="none" stroke="#000000" points="205,-106.5 294,-106.5 "/>
<text text-anchor="middle" x="249.5" y="-91.3" font-family="Times,serif" font-size="14.00" fill="#000000">(None, 4096)</text>
</g>
<!-- 139807093390752&#45;&gt;139807092332584 -->
<g id="edge21" class="edge">
<title>139807093390752&#45;&gt;139807092332584</title>
<path fill="none" stroke="#000000" d="M184.5,-166.3799C184.5,-158.1745 184.5,-148.7679 184.5,-139.8786"/>
<polygon fill="#000000" stroke="#000000" points="188.0001,-139.784 184.5,-129.784 181.0001,-139.784 188.0001,-139.784"/>
</g>
<!-- 139807092334544 -->
<g id="node23" class="node">
<title>139807092334544</title>
<polygon fill="none" stroke="#000000" points="53.5,-.5 53.5,-46.5 315.5,-46.5 315.5,-.5 53.5,-.5"/>
<text text-anchor="middle" x="112.5" y="-19.8" font-family="Times,serif" font-size="14.00" fill="#000000">predictions: Dense</text>
<polyline fill="none" stroke="#000000" points="171.5,-.5 171.5,-46.5 "/>
<text text-anchor="middle" x="199" y="-31.3" font-family="Times,serif" font-size="14.00" fill="#000000">input:</text>
<polyline fill="none" stroke="#000000" points="171.5,-23.5 226.5,-23.5 "/>
<text text-anchor="middle" x="199" y="-8.3" font-family="Times,serif" font-size="14.00" fill="#000000">output:</text>
<polyline fill="none" stroke="#000000" points="226.5,-.5 226.5,-46.5 "/>
<text text-anchor="middle" x="271" y="-31.3" font-family="Times,serif" font-size="14.00" fill="#000000">(None, 4096)</text>
<polyline fill="none" stroke="#000000" points="226.5,-23.5 315.5,-23.5 "/>
<text text-anchor="middle" x="271" y="-8.3" font-family="Times,serif" font-size="14.00" fill="#000000">(None, 1000)</text>
</g>
<!-- 139807092332584&#45;&gt;139807092334544 -->
<g id="edge22" class="edge">
<title>139807092332584&#45;&gt;139807092334544</title>
<path fill="none" stroke="#000000" d="M184.5,-83.3799C184.5,-75.1745 184.5,-65.7679 184.5,-56.8786"/>
<polygon fill="#000000" stroke="#000000" points="188.0001,-56.784 184.5,-46.784 181.0001,-56.784 188.0001,-56.784"/>
</g>
</g>
</svg>
