<?xml version="1.0" encoding="UTF-8" standalone="no"?>
<!DOCTYPE svg PUBLIC "-//W3C//DTD SVG 1.1//EN"
 "http://www.w3.org/Graphics/SVG/1.1/DTD/svg11.dtd">
<!-- Generated by graphviz version 2.40.1 (20161225.0304)
 -->
<!-- Title: G Pages: 1 -->
<svg width="395pt" height="1549pt"
 viewBox="0.00 0.00 395.00 1549.00" xmlns="http://www.w3.org/2000/svg" xmlns:xlink="http://www.w3.org/1999/xlink">
<g id="graph0" class="graph" transform="scale(1 1) rotate(0) translate(4 1545)">
<title>G</title>
<polygon fill="#ffffff" stroke="transparent" points="-4,4 -4,-1545 391,-1545 391,4 -4,4"/>
<!-- 140186363722608 -->
<g id="node1" class="node">
<title>140186363722608</title>
<polygon fill="none" stroke="#000000" points="32,-1494.5 32,-1540.5 355,-1540.5 355,-1494.5 32,-1494.5"/>
<text text-anchor="middle" x="94.5" y="-1513.8" font-family="Times,serif" font-size="14.00" fill="#000000">input_1: InputLayer</text>
<polyline fill="none" stroke="#000000" points="157,-1494.5 157,-1540.5 "/>
<text text-anchor="middle" x="184.5" y="-1525.3" font-family="Times,serif" font-size="14.00" fill="#000000">input:</text>
<polyline fill="none" stroke="#000000" points="157,-1517.5 212,-1517.5 "/>
<text text-anchor="middle" x="184.5" y="-1502.3" font-family="Times,serif" font-size="14.00" fill="#000000">output:</text>
<polyline fill="none" stroke="#000000" points="212,-1494.5 212,-1540.5 "/>
<text text-anchor="middle" x="283.5" y="-1525.3" font-family="Times,serif" font-size="14.00" fill="#000000">(None, None, None, 3)</text>
<polyline fill="none" stroke="#000000" points="212,-1517.5 355,-1517.5 "/>
<text text-anchor="middle" x="283.5" y="-1502.3" font-family="Times,serif" font-size="14.00" fill="#000000">(None, None, None, 3)</text>
</g>
<!-- 140185886885144 -->
<g id="node2" class="node">
<title>140185886885144</title>
<polygon fill="none" stroke="#000000" points="18.5,-1411.5 18.5,-1457.5 368.5,-1457.5 368.5,-1411.5 18.5,-1411.5"/>
<text text-anchor="middle" x="91.5" y="-1430.8" font-family="Times,serif" font-size="14.00" fill="#000000">block1_conv1: Conv2D</text>
<polyline fill="none" stroke="#000000" points="164.5,-1411.5 164.5,-1457.5 "/>
<text text-anchor="middle" x="192" y="-1442.3" font-family="Times,serif" font-size="14.00" fill="#000000">input:</text>
<polyline fill="none" stroke="#000000" points="164.5,-1434.5 219.5,-1434.5 "/>
<text text-anchor="middle" x="192" y="-1419.3" font-family="Times,serif" font-size="14.00" fill="#000000">output:</text>
<polyline fill="none" stroke="#000000" points="219.5,-1411.5 219.5,-1457.5 "/>
<text text-anchor="middle" x="294" y="-1442.3" font-family="Times,serif" font-size="14.00" fill="#000000">(None, None, None, 3)</text>
<polyline fill="none" stroke="#000000" points="219.5,-1434.5 368.5,-1434.5 "/>
<text text-anchor="middle" x="294" y="-1419.3" font-family="Times,serif" font-size="14.00" fill="#000000">(None, None, None, 64)</text>
</g>
<!-- 140186363722608&#45;&gt;140185886885144 -->
<g id="edge1" class="edge">
<title>140186363722608&#45;&gt;140185886885144</title>
<path fill="none" stroke="#000000" d="M193.5,-1494.3799C193.5,-1486.1745 193.5,-1476.7679 193.5,-1467.8786"/>
<polygon fill="#000000" stroke="#000000" points="197.0001,-1467.784 193.5,-1457.784 190.0001,-1467.784 197.0001,-1467.784"/>
</g>
<!-- 140185886886880 -->
<g id="node3" class="node">
<title>140185886886880</title>
<polygon fill="none" stroke="#000000" points="18.5,-1328.5 18.5,-1374.5 368.5,-1374.5 368.5,-1328.5 18.5,-1328.5"/>
<text text-anchor="middle" x="91.5" y="-1347.8" font-family="Times,serif" font-size="14.00" fill="#000000">block1_conv2: Conv2D</text>
<polyline fill="none" stroke="#000000" points="164.5,-1328.5 164.5,-1374.5 "/>
<text text-anchor="middle" x="192" y="-1359.3" font-family="Times,serif" font-size="14.00" fill="#000000">input:</text>
<polyline fill="none" stroke="#000000" points="164.5,-1351.5 219.5,-1351.5 "/>
<text text-anchor="middle" x="192" y="-1336.3" font-family="Times,serif" font-size="14.00" fill="#000000">output:</text>
<polyline fill="none" stroke="#000000" points="219.5,-1328.5 219.5,-1374.5 "/>
<text text-anchor="middle" x="294" y="-1359.3" font-family="Times,serif" font-size="14.00" fill="#000000">(None, None, None, 64)</text>
<polyline fill="none" stroke="#000000" points="219.5,-1351.5 368.5,-1351.5 "/>
<text text-anchor="middle" x="294" y="-1336.3" font-family="Times,serif" font-size="14.00" fill="#000000">(None, None, None, 64)</text>
</g>
<!-- 140185886885144&#45;&gt;140185886886880 -->
<g id="edge2" class="edge">
<title>140185886885144&#45;&gt;140185886886880</title>
<path fill="none" stroke="#000000" d="M193.5,-1411.3799C193.5,-1403.1745 193.5,-1393.7679 193.5,-1384.8786"/>
<polygon fill="#000000" stroke="#000000" points="197.0001,-1384.784 193.5,-1374.784 190.0001,-1384.784 197.0001,-1384.784"/>
</g>
<!-- 140185887117496 -->
<g id="node4" class="node">
<title>140185887117496</title>
<polygon fill="none" stroke="#000000" points="3.5,-1245.5 3.5,-1291.5 383.5,-1291.5 383.5,-1245.5 3.5,-1245.5"/>
<text text-anchor="middle" x="91.5" y="-1264.8" font-family="Times,serif" font-size="14.00" fill="#000000">block1_pool: MaxPooling2D</text>
<polyline fill="none" stroke="#000000" points="179.5,-1245.5 179.5,-1291.5 "/>
<text text-anchor="middle" x="207" y="-1276.3" font-family="Times,serif" font-size="14.00" fill="#000000">input:</text>
<polyline fill="none" stroke="#000000" points="179.5,-1268.5 234.5,-1268.5 "/>
<text text-anchor="middle" x="207" y="-1253.3" font-family="Times,serif" font-size="14.00" fill="#000000">output:</text>
<polyline fill="none" stroke="#000000" points="234.5,-1245.5 234.5,-1291.5 "/>
<text text-anchor="middle" x="309" y="-1276.3" font-family="Times,serif" font-size="14.00" fill="#000000">(None, None, None, 64)</text>
<polyline fill="none" stroke="#000000" points="234.5,-1268.5 383.5,-1268.5 "/>
<text text-anchor="middle" x="309" y="-1253.3" font-family="Times,serif" font-size="14.00" fill="#000000">(None, None, None, 64)</text>
</g>
<!-- 140185886886880&#45;&gt;140185887117496 -->
<g id="edge3" class="edge">
<title>140185886886880&#45;&gt;140185887117496</title>
<path fill="none" stroke="#000000" d="M193.5,-1328.3799C193.5,-1320.1745 193.5,-1310.7679 193.5,-1301.8786"/>
<polygon fill="#000000" stroke="#000000" points="197.0001,-1301.784 193.5,-1291.784 190.0001,-1301.784 197.0001,-1301.784"/>
</g>
<!-- 140185887117440 -->
<g id="node5" class="node">
<title>140185887117440</title>
<polygon fill="none" stroke="#000000" points="15,-1162.5 15,-1208.5 372,-1208.5 372,-1162.5 15,-1162.5"/>
<text text-anchor="middle" x="88" y="-1181.8" font-family="Times,serif" font-size="14.00" fill="#000000">block2_conv1: Conv2D</text>
<polyline fill="none" stroke="#000000" points="161,-1162.5 161,-1208.5 "/>
<text text-anchor="middle" x="188.5" y="-1193.3" font-family="Times,serif" font-size="14.00" fill="#000000">input:</text>
<polyline fill="none" stroke="#000000" points="161,-1185.5 216,-1185.5 "/>
<text text-anchor="middle" x="188.5" y="-1170.3" font-family="Times,serif" font-size="14.00" fill="#000000">output:</text>
<polyline fill="none" stroke="#000000" points="216,-1162.5 216,-1208.5 "/>
<text text-anchor="middle" x="294" y="-1193.3" font-family="Times,serif" font-size="14.00" fill="#000000">(None, None, None, 64)</text>
<polyline fill="none" stroke="#000000" points="216,-1185.5 372,-1185.5 "/>
<text text-anchor="middle" x="294" y="-1170.3" font-family="Times,serif" font-size="14.00" fill="#000000">(None, None, None, 128)</text>
</g>
<!-- 140185887117496&#45;&gt;140185887117440 -->
<g id="edge4" class="edge">
<title>140185887117496&#45;&gt;140185887117440</title>
<path fill="none" stroke="#000000" d="M193.5,-1245.3799C193.5,-1237.1745 193.5,-1227.7679 193.5,-1218.8786"/>
<polygon fill="#000000" stroke="#000000" points="197.0001,-1218.784 193.5,-1208.784 190.0001,-1218.784 197.0001,-1218.784"/>
</g>
<!-- 140185887794568 -->
<g id="node6" class="node">
<title>140185887794568</title>
<polygon fill="none" stroke="#000000" points="15,-1079.5 15,-1125.5 372,-1125.5 372,-1079.5 15,-1079.5"/>
<text text-anchor="middle" x="88" y="-1098.8" font-family="Times,serif" font-size="14.00" fill="#000000">block2_conv2: Conv2D</text>
<polyline fill="none" stroke="#000000" points="161,-1079.5 161,-1125.5 "/>
<text text-anchor="middle" x="188.5" y="-1110.3" font-family="Times,serif" font-size="14.00" fill="#000000">input:</text>
<polyline fill="none" stroke="#000000" points="161,-1102.5 216,-1102.5 "/>
<text text-anchor="middle" x="188.5" y="-1087.3" font-family="Times,serif" font-size="14.00" fill="#000000">output:</text>
<polyline fill="none" stroke="#000000" points="216,-1079.5 216,-1125.5 "/>
<text text-anchor="middle" x="294" y="-1110.3" font-family="Times,serif" font-size="14.00" fill="#000000">(None, None, None, 128)</text>
<polyline fill="none" stroke="#000000" points="216,-1102.5 372,-1102.5 "/>
<text text-anchor="middle" x="294" y="-1087.3" font-family="Times,serif" font-size="14.00" fill="#000000">(None, None, None, 128)</text>
</g>
<!-- 140185887117440&#45;&gt;140185887794568 -->
<g id="edge5" class="edge">
<title>140185887117440&#45;&gt;140185887794568</title>
<path fill="none" stroke="#000000" d="M193.5,-1162.3799C193.5,-1154.1745 193.5,-1144.7679 193.5,-1135.8786"/>
<polygon fill="#000000" stroke="#000000" points="197.0001,-1135.784 193.5,-1125.784 190.0001,-1135.784 197.0001,-1135.784"/>
</g>
<!-- 140185886007592 -->
<g id="node7" class="node">
<title>140185886007592</title>
<polygon fill="none" stroke="#000000" points="0,-996.5 0,-1042.5 387,-1042.5 387,-996.5 0,-996.5"/>
<text text-anchor="middle" x="88" y="-1015.8" font-family="Times,serif" font-size="14.00" fill="#000000">block2_pool: MaxPooling2D</text>
<polyline fill="none" stroke="#000000" points="176,-996.5 176,-1042.5 "/>
<text text-anchor="middle" x="203.5" y="-1027.3" font-family="Times,serif" font-size="14.00" fill="#000000">input:</text>
<polyline fill="none" stroke="#000000" points="176,-1019.5 231,-1019.5 "/>
<text text-anchor="middle" x="203.5" y="-1004.3" font-family="Times,serif" font-size="14.00" fill="#000000">output:</text>
<polyline fill="none" stroke="#000000" points="231,-996.5 231,-1042.5 "/>
<text text-anchor="middle" x="309" y="-1027.3" font-family="Times,serif" font-size="14.00" fill="#000000">(None, None, None, 128)</text>
<polyline fill="none" stroke="#000000" points="231,-1019.5 387,-1019.5 "/>
<text text-anchor="middle" x="309" y="-1004.3" font-family="Times,serif" font-size="14.00" fill="#000000">(None, None, None, 128)</text>
</g>
<!-- 140185887794568&#45;&gt;140185886007592 -->
<g id="edge6" class="edge">
<title>140185887794568&#45;&gt;140185886007592</title>
<path fill="none" stroke="#000000" d="M193.5,-1079.3799C193.5,-1071.1745 193.5,-1061.7679 193.5,-1052.8786"/>
<polygon fill="#000000" stroke="#000000" points="197.0001,-1052.784 193.5,-1042.784 190.0001,-1052.784 197.0001,-1052.784"/>
</g>
<!-- 140185886010616 -->
<g id="node8" class="node">
<title>140185886010616</title>
<polygon fill="none" stroke="#000000" points="15,-913.5 15,-959.5 372,-959.5 372,-913.5 15,-913.5"/>
<text text-anchor="middle" x="88" y="-932.8" font-family="Times,serif" font-size="14.00" fill="#000000">block3_conv1: Conv2D</text>
<polyline fill="none" stroke="#000000" points="161,-913.5 161,-959.5 "/>
<text text-anchor="middle" x="188.5" y="-944.3" font-family="Times,serif" font-size="14.00" fill="#000000">input:</text>
<polyline fill="none" stroke="#000000" points="161,-936.5 216,-936.5 "/>
<text text-anchor="middle" x="188.5" y="-921.3" font-family="Times,serif" font-size="14.00" fill="#000000">output:</text>
<polyline fill="none" stroke="#000000" points="216,-913.5 216,-959.5 "/>
<text text-anchor="middle" x="294" y="-944.3" font-family="Times,serif" font-size="14.00" fill="#000000">(None, None, None, 128)</text>
<polyline fill="none" stroke="#000000" points="216,-936.5 372,-936.5 "/>
<text text-anchor="middle" x="294" y="-921.3" font-family="Times,serif" font-size="14.00" fill="#000000">(None, None, None, 256)</text>
</g>
<!-- 140185886007592&#45;&gt;140185886010616 -->
<g id="edge7" class="edge">
<title>140185886007592&#45;&gt;140185886010616</title>
<path fill="none" stroke="#000000" d="M193.5,-996.3799C193.5,-988.1745 193.5,-978.7679 193.5,-969.8786"/>
<polygon fill="#000000" stroke="#000000" points="197.0001,-969.784 193.5,-959.784 190.0001,-969.784 197.0001,-969.784"/>
</g>
<!-- 140185884013008 -->
<g id="node9" class="node">
<title>140185884013008</title>
<polygon fill="none" stroke="#000000" points="15,-830.5 15,-876.5 372,-876.5 372,-830.5 15,-830.5"/>
<text text-anchor="middle" x="88" y="-849.8" font-family="Times,serif" font-size="14.00" fill="#000000">block3_conv2: Conv2D</text>
<polyline fill="none" stroke="#000000" points="161,-830.5 161,-876.5 "/>
<text text-anchor="middle" x="188.5" y="-861.3" font-family="Times,serif" font-size="14.00" fill="#000000">input:</text>
<polyline fill="none" stroke="#000000" points="161,-853.5 216,-853.5 "/>
<text text-anchor="middle" x="188.5" y="-838.3" font-family="Times,serif" font-size="14.00" fill="#000000">output:</text>
<polyline fill="none" stroke="#000000" points="216,-830.5 216,-876.5 "/>
<text text-anchor="middle" x="294" y="-861.3" font-family="Times,serif" font-size="14.00" fill="#000000">(None, None, None, 256)</text>
<polyline fill="none" stroke="#000000" points="216,-853.5 372,-853.5 "/>
<text text-anchor="middle" x="294" y="-838.3" font-family="Times,serif" font-size="14.00" fill="#000000">(None, None, None, 256)</text>
</g>
<!-- 140185886010616&#45;&gt;140185884013008 -->
<g id="edge8" class="edge">
<title>140185886010616&#45;&gt;140185884013008</title>
<path fill="none" stroke="#000000" d="M193.5,-913.3799C193.5,-905.1745 193.5,-895.7679 193.5,-886.8786"/>
<polygon fill="#000000" stroke="#000000" points="197.0001,-886.784 193.5,-876.784 190.0001,-886.784 197.0001,-886.784"/>
</g>
<!-- 140185884120232 -->
<g id="node10" class="node">
<title>140185884120232</title>
<polygon fill="none" stroke="#000000" points="15,-747.5 15,-793.5 372,-793.5 372,-747.5 15,-747.5"/>
<text text-anchor="middle" x="88" y="-766.8" font-family="Times,serif" font-size="14.00" fill="#000000">block3_conv3: Conv2D</text>
<polyline fill="none" stroke="#000000" points="161,-747.5 161,-793.5 "/>
<text text-anchor="middle" x="188.5" y="-778.3" font-family="Times,serif" font-size="14.00" fill="#000000">input:</text>
<polyline fill="none" stroke="#000000" points="161,-770.5 216,-770.5 "/>
<text text-anchor="middle" x="188.5" y="-755.3" font-family="Times,serif" font-size="14.00" fill="#000000">output:</text>
<polyline fill="none" stroke="#000000" points="216,-747.5 216,-793.5 "/>
<text text-anchor="middle" x="294" y="-778.3" font-family="Times,serif" font-size="14.00" fill="#000000">(None, None, None, 256)</text>
<polyline fill="none" stroke="#000000" points="216,-770.5 372,-770.5 "/>
<text text-anchor="middle" x="294" y="-755.3" font-family="Times,serif" font-size="14.00" fill="#000000">(None, None, None, 256)</text>
</g>
<!-- 140185884013008&#45;&gt;140185884120232 -->
<g id="edge9" class="edge">
<title>140185884013008&#45;&gt;140185884120232</title>
<path fill="none" stroke="#000000" d="M193.5,-830.3799C193.5,-822.1745 193.5,-812.7679 193.5,-803.8786"/>
<polygon fill="#000000" stroke="#000000" points="197.0001,-803.784 193.5,-793.784 190.0001,-803.784 197.0001,-803.784"/>
</g>
<!-- 140185884247040 -->
<g id="node11" class="node">
<title>140185884247040</title>
<polygon fill="none" stroke="#000000" points="0,-664.5 0,-710.5 387,-710.5 387,-664.5 0,-664.5"/>
<text text-anchor="middle" x="88" y="-683.8" font-family="Times,serif" font-size="14.00" fill="#000000">block3_pool: MaxPooling2D</text>
<polyline fill="none" stroke="#000000" points="176,-664.5 176,-710.5 "/>
<text text-anchor="middle" x="203.5" y="-695.3" font-family="Times,serif" font-size="14.00" fill="#000000">input:</text>
<polyline fill="none" stroke="#000000" points="176,-687.5 231,-687.5 "/>
<text text-anchor="middle" x="203.5" y="-672.3" font-family="Times,serif" font-size="14.00" fill="#000000">output:</text>
<polyline fill="none" stroke="#000000" points="231,-664.5 231,-710.5 "/>
<text text-anchor="middle" x="309" y="-695.3" font-family="Times,serif" font-size="14.00" fill="#000000">(None, None, None, 256)</text>
<polyline fill="none" stroke="#000000" points="231,-687.5 387,-687.5 "/>
<text text-anchor="middle" x="309" y="-672.3" font-family="Times,serif" font-size="14.00" fill="#000000">(None, None, None, 256)</text>
</g>
<!-- 140185884120232&#45;&gt;140185884247040 -->
<g id="edge10" class="edge">
<title>140185884120232&#45;&gt;140185884247040</title>
<path fill="none" stroke="#000000" d="M193.5,-747.3799C193.5,-739.1745 193.5,-729.7679 193.5,-720.8786"/>
<polygon fill="#000000" stroke="#000000" points="197.0001,-720.784 193.5,-710.784 190.0001,-720.784 197.0001,-720.784"/>
</g>
<!-- 140185884249336 -->
<g id="node12" class="node">
<title>140185884249336</title>
<polygon fill="none" stroke="#000000" points="15,-581.5 15,-627.5 372,-627.5 372,-581.5 15,-581.5"/>
<text text-anchor="middle" x="88" y="-600.8" font-family="Times,serif" font-size="14.00" fill="#000000">block4_conv1: Conv2D</text>
<polyline fill="none" stroke="#000000" points="161,-581.5 161,-627.5 "/>
<text text-anchor="middle" x="188.5" y="-612.3" font-family="Times,serif" font-size="14.00" fill="#000000">input:</text>
<polyline fill="none" stroke="#000000" points="161,-604.5 216,-604.5 "/>
<text text-anchor="middle" x="188.5" y="-589.3" font-family="Times,serif" font-size="14.00" fill="#000000">output:</text>
<polyline fill="none" stroke="#000000" points="216,-581.5 216,-627.5 "/>
<text text-anchor="middle" x="294" y="-612.3" font-family="Times,serif" font-size="14.00" fill="#000000">(None, None, None, 256)</text>
<polyline fill="none" stroke="#000000" points="216,-604.5 372,-604.5 "/>
<text text-anchor="middle" x="294" y="-589.3" font-family="Times,serif" font-size="14.00" fill="#000000">(None, None, None, 512)</text>
</g>
<!-- 140185884247040&#45;&gt;140185884249336 -->
<g id="edge11" class="edge">
<title>140185884247040&#45;&gt;140185884249336</title>
<path fill="none" stroke="#000000" d="M193.5,-664.3799C193.5,-656.1745 193.5,-646.7679 193.5,-637.8786"/>
<polygon fill="#000000" stroke="#000000" points="197.0001,-637.784 193.5,-627.784 190.0001,-637.784 197.0001,-637.784"/>
</g>
<!-- 140185884606928 -->
<g id="node13" class="node">
<title>140185884606928</title>
<polygon fill="none" stroke="#000000" points="15,-498.5 15,-544.5 372,-544.5 372,-498.5 15,-498.5"/>
<text text-anchor="middle" x="88" y="-517.8" font-family="Times,serif" font-size="14.00" fill="#000000">block4_conv2: Conv2D</text>
<polyline fill="none" stroke="#000000" points="161,-498.5 161,-544.5 "/>
<text text-anchor="middle" x="188.5" y="-529.3" font-family="Times,serif" font-size="14.00" fill="#000000">input:</text>
<polyline fill="none" stroke="#000000" points="161,-521.5 216,-521.5 "/>
<text text-anchor="middle" x="188.5" y="-506.3" font-family="Times,serif" font-size="14.00" fill="#000000">output:</text>
<polyline fill="none" stroke="#000000" points="216,-498.5 216,-544.5 "/>
<text text-anchor="middle" x="294" y="-529.3" font-family="Times,serif" font-size="14.00" fill="#000000">(None, None, None, 512)</text>
<polyline fill="none" stroke="#000000" points="216,-521.5 372,-521.5 "/>
<text text-anchor="middle" x="294" y="-506.3" font-family="Times,serif" font-size="14.00" fill="#000000">(None, None, None, 512)</text>
</g>
<!-- 140185884249336&#45;&gt;140185884606928 -->
<g id="edge12" class="edge">
<title>140185884249336&#45;&gt;140185884606928</title>
<path fill="none" stroke="#000000" d="M193.5,-581.3799C193.5,-573.1745 193.5,-563.7679 193.5,-554.8786"/>
<polygon fill="#000000" stroke="#000000" points="197.0001,-554.784 193.5,-544.784 190.0001,-554.784 197.0001,-554.784"/>
</g>
<!-- 140185884619944 -->
<g id="node14" class="node">
<title>140185884619944</title>
<polygon fill="none" stroke="#000000" points="15,-415.5 15,-461.5 372,-461.5 372,-415.5 15,-415.5"/>
<text text-anchor="middle" x="88" y="-434.8" font-family="Times,serif" font-size="14.00" fill="#000000">block4_conv3: Conv2D</text>
<polyline fill="none" stroke="#000000" points="161,-415.5 161,-461.5 "/>
<text text-anchor="middle" x="188.5" y="-446.3" font-family="Times,serif" font-size="14.00" fill="#000000">input:</text>
<polyline fill="none" stroke="#000000" points="161,-438.5 216,-438.5 "/>
<text text-anchor="middle" x="188.5" y="-423.3" font-family="Times,serif" font-size="14.00" fill="#000000">output:</text>
<polyline fill="none" stroke="#000000" points="216,-415.5 216,-461.5 "/>
<text text-anchor="middle" x="294" y="-446.3" font-family="Times,serif" font-size="14.00" fill="#000000">(None, None, None, 512)</text>
<polyline fill="none" stroke="#000000" points="216,-438.5 372,-438.5 "/>
<text text-anchor="middle" x="294" y="-423.3" font-family="Times,serif" font-size="14.00" fill="#000000">(None, None, None, 512)</text>
</g>
<!-- 140185884606928&#45;&gt;140185884619944 -->
<g id="edge13" class="edge">
<title>140185884606928&#45;&gt;140185884619944</title>
<path fill="none" stroke="#000000" d="M193.5,-498.3799C193.5,-490.1745 193.5,-480.7679 193.5,-471.8786"/>
<polygon fill="#000000" stroke="#000000" points="197.0001,-471.784 193.5,-461.784 190.0001,-471.784 197.0001,-471.784"/>
</g>
<!-- 140185884759040 -->
<g id="node15" class="node">
<title>140185884759040</title>
<polygon fill="none" stroke="#000000" points="0,-332.5 0,-378.5 387,-378.5 387,-332.5 0,-332.5"/>
<text text-anchor="middle" x="88" y="-351.8" font-family="Times,serif" font-size="14.00" fill="#000000">block4_pool: MaxPooling2D</text>
<polyline fill="none" stroke="#000000" points="176,-332.5 176,-378.5 "/>
<text text-anchor="middle" x="203.5" y="-363.3" font-family="Times,serif" font-size="14.00" fill="#000000">input:</text>
<polyline fill="none" stroke="#000000" points="176,-355.5 231,-355.5 "/>
<text text-anchor="middle" x="203.5" y="-340.3" font-family="Times,serif" font-size="14.00" fill="#000000">output:</text>
<polyline fill="none" stroke="#000000" points="231,-332.5 231,-378.5 "/>
<text text-anchor="middle" x="309" y="-363.3" font-family="Times,serif" font-size="14.00" fill="#000000">(None, None, None, 512)</text>
<polyline fill="none" stroke="#000000" points="231,-355.5 387,-355.5 "/>
<text text-anchor="middle" x="309" y="-340.3" font-family="Times,serif" font-size="14.00" fill="#000000">(None, None, None, 512)</text>
</g>
<!-- 140185884619944&#45;&gt;140185884759040 -->
<g id="edge14" class="edge">
<title>140185884619944&#45;&gt;140185884759040</title>
<path fill="none" stroke="#000000" d="M193.5,-415.3799C193.5,-407.1745 193.5,-397.7679 193.5,-388.8786"/>
<polygon fill="#000000" stroke="#000000" points="197.0001,-388.784 193.5,-378.784 190.0001,-388.784 197.0001,-388.784"/>
</g>
<!-- 140185884761336 -->
<g id="node16" class="node">
<title>140185884761336</title>
<polygon fill="none" stroke="#000000" points="15,-249.5 15,-295.5 372,-295.5 372,-249.5 15,-249.5"/>
<text text-anchor="middle" x="88" y="-268.8" font-family="Times,serif" font-size="14.00" fill="#000000">block5_conv1: Conv2D</text>
<polyline fill="none" stroke="#000000" points="161,-249.5 161,-295.5 "/>
<text text-anchor="middle" x="188.5" y="-280.3" font-family="Times,serif" font-size="14.00" fill="#000000">input:</text>
<polyline fill="none" stroke="#000000" points="161,-272.5 216,-272.5 "/>
<text text-anchor="middle" x="188.5" y="-257.3" font-family="Times,serif" font-size="14.00" fill="#000000">output:</text>
<polyline fill="none" stroke="#000000" points="216,-249.5 216,-295.5 "/>
<text text-anchor="middle" x="294" y="-280.3" font-family="Times,serif" font-size="14.00" fill="#000000">(None, None, None, 512)</text>
<polyline fill="none" stroke="#000000" points="216,-272.5 372,-272.5 "/>
<text text-anchor="middle" x="294" y="-257.3" font-family="Times,serif" font-size="14.00" fill="#000000">(None, None, None, 512)</text>
</g>
<!-- 140185884759040&#45;&gt;140185884761336 -->
<g id="edge15" class="edge">
<title>140185884759040&#45;&gt;140185884761336</title>
<path fill="none" stroke="#000000" d="M193.5,-332.3799C193.5,-324.1745 193.5,-314.7679 193.5,-305.8786"/>
<polygon fill="#000000" stroke="#000000" points="197.0001,-305.784 193.5,-295.784 190.0001,-305.784 197.0001,-305.784"/>
</g>
<!-- 140185885274576 -->
<g id="node17" class="node">
<title>140185885274576</title>
<polygon fill="none" stroke="#000000" points="15,-166.5 15,-212.5 372,-212.5 372,-166.5 15,-166.5"/>
<text text-anchor="middle" x="88" y="-185.8" font-family="Times,serif" font-size="14.00" fill="#000000">block5_conv2: Conv2D</text>
<polyline fill="none" stroke="#000000" points="161,-166.5 161,-212.5 "/>
<text text-anchor="middle" x="188.5" y="-197.3" font-family="Times,serif" font-size="14.00" fill="#000000">input:</text>
<polyline fill="none" stroke="#000000" points="161,-189.5 216,-189.5 "/>
<text text-anchor="middle" x="188.5" y="-174.3" font-family="Times,serif" font-size="14.00" fill="#000000">output:</text>
<polyline fill="none" stroke="#000000" points="216,-166.5 216,-212.5 "/>
<text text-anchor="middle" x="294" y="-197.3" font-family="Times,serif" font-size="14.00" fill="#000000">(None, None, None, 512)</text>
<polyline fill="none" stroke="#000000" points="216,-189.5 372,-189.5 "/>
<text text-anchor="middle" x="294" y="-174.3" font-family="Times,serif" font-size="14.00" fill="#000000">(None, None, None, 512)</text>
</g>
<!-- 140185884761336&#45;&gt;140185885274576 -->
<g id="edge16" class="edge">
<title>140185884761336&#45;&gt;140185885274576</title>
<path fill="none" stroke="#000000" d="M193.5,-249.3799C193.5,-241.1745 193.5,-231.7679 193.5,-222.8786"/>
<polygon fill="#000000" stroke="#000000" points="197.0001,-222.784 193.5,-212.784 190.0001,-222.784 197.0001,-222.784"/>
</g>
<!-- 140185885652136 -->
<g id="node18" class="node">
<title>140185885652136</title>
<polygon fill="none" stroke="#000000" points="15,-83.5 15,-129.5 372,-129.5 372,-83.5 15,-83.5"/>
<text text-anchor="middle" x="88" y="-102.8" font-family="Times,serif" font-size="14.00" fill="#000000">block5_conv3: Conv2D</text>
<polyline fill="none" stroke="#000000" points="161,-83.5 161,-129.5 "/>
<text text-anchor="middle" x="188.5" y="-114.3" font-family="Times,serif" font-size="14.00" fill="#000000">input:</text>
<polyline fill="none" stroke="#000000" points="161,-106.5 216,-106.5 "/>
<text text-anchor="middle" x="188.5" y="-91.3" font-family="Times,serif" font-size="14.00" fill="#000000">output:</text>
<polyline fill="none" stroke="#000000" points="216,-83.5 216,-129.5 "/>
<text text-anchor="middle" x="294" y="-114.3" font-family="Times,serif" font-size="14.00" fill="#000000">(None, None, None, 512)</text>
<polyline fill="none" stroke="#000000" points="216,-106.5 372,-106.5 "/>
<text text-anchor="middle" x="294" y="-91.3" font-family="Times,serif" font-size="14.00" fill="#000000">(None, None, None, 512)</text>
</g>
<!-- 140185885274576&#45;&gt;140185885652136 -->
<g id="edge17" class="edge">
<title>140185885274576&#45;&gt;140185885652136</title>
<path fill="none" stroke="#000000" d="M193.5,-166.3799C193.5,-158.1745 193.5,-148.7679 193.5,-139.8786"/>
<polygon fill="#000000" stroke="#000000" points="197.0001,-139.784 193.5,-129.784 190.0001,-139.784 197.0001,-139.784"/>
</g>
<!-- 140185885750272 -->
<g id="node19" class="node">
<title>140185885750272</title>
<polygon fill="none" stroke="#000000" points="0,-.5 0,-46.5 387,-46.5 387,-.5 0,-.5"/>
<text text-anchor="middle" x="88" y="-19.8" font-family="Times,serif" font-size="14.00" fill="#000000">block5_pool: MaxPooling2D</text>
<polyline fill="none" stroke="#000000" points="176,-.5 176,-46.5 "/>
<text text-anchor="middle" x="203.5" y="-31.3" font-family="Times,serif" font-size="14.00" fill="#000000">input:</text>
<polyline fill="none" stroke="#000000" points="176,-23.5 231,-23.5 "/>
<text text-anchor="middle" x="203.5" y="-8.3" font-family="Times,serif" font-size="14.00" fill="#000000">output:</text>
<polyline fill="none" stroke="#000000" points="231,-.5 231,-46.5 "/>
<text text-anchor="middle" x="309" y="-31.3" font-family="Times,serif" font-size="14.00" fill="#000000">(None, None, None, 512)</text>
<polyline fill="none" stroke="#000000" points="231,-23.5 387,-23.5 "/>
<text text-anchor="middle" x="309" y="-8.3" font-family="Times,serif" font-size="14.00" fill="#000000">(None, None, None, 512)</text>
</g>
<!-- 140185885652136&#45;&gt;140185885750272 -->
<g id="edge18" class="edge">
<title>140185885652136&#45;&gt;140185885750272</title>
<path fill="none" stroke="#000000" d="M193.5,-83.3799C193.5,-75.1745 193.5,-65.7679 193.5,-56.8786"/>
<polygon fill="#000000" stroke="#000000" points="197.0001,-56.784 193.5,-46.784 190.0001,-56.784 197.0001,-56.784"/>
</g>
</g>
</svg>
